<!DOCTYPE svg PUBLIC "-//W3C//DTD SVG 1.1//EN" "http://www.w3.org/Graphics/SVG/1.1/DTD/svg11.dtd">
<!-- Uploaded to: SVG Repo, www.svgrepo.com, Transformed by: SVG Repo Mixer Tools -->
<svg width="800px" height="800px" viewBox="0 0 24 24" fill="none" xmlns="http://www.w3.org/2000/svg" stroke="#ffffff">
<g id="SVGRepo_bgCarrier" stroke-width="0"/>
<g id="SVGRepo_tracerCarrier" stroke-linecap="round" stroke-linejoin="round"/>
<g id="SVGRepo_iconCarrier"> <path opacity="0.15" d="M4 6C4 5.44771 4.44772 5 5 5H19C19.5523 5 20 5.44772 20 6V15C20 15.5523 19.5523 16 19 16H5C4.44772 16 4 15.5523 4 15V6Z" fill="#ffffff"/> <path d="M16 10.5H8M16 10.5L13 13.5M16 10.5L13 7.5M12 20H16M12 20H8M12 20V16M12 16H5C4.44772 16 4 15.5523 4 15V6C4 5.44771 4.44772 5 5 5H19C19.5523 5 20 5.44772 20 6V15C20 15.5523 19.5523 16 19 16H12Z" stroke="#ffffff" stroke-width="1.5" stroke-linecap="round" stroke-linejoin="round"/> </g>
</svg>