<svg id="_20_Accept" viewBox="0 0 512 512" xmlns="http://www.w3.org/2000/svg" data-name="20 Accept"><path d="m18.34 278.9a229.88 229.88 0 0 1 32.66-118.45 238.06 238.06 0 0 0 407.79 20.84 230.18 230.18 0 0 1 21.57 97.61c0 127.58-103.42 231-231 231s-231.02-103.42-231.02-231z" fill="#92f970"/><path d="m256 512a256 256 0 0 1 -181-437 256.06 256.06 0 0 1 321.45-33.08 25 25 0 1 1 -27.45 41.78 205.07 205.07 0 0 0 -113-33.7c-113.56 0-206 92.41-206 206s92.41 206 206 206 206-92.41 206-206a206.07 206.07 0 0 0 -8.65-59.27 25 25 0 0 1 47.9-14.37 256.07 256.07 0 0 1 -245.25 329.64z"/><path d="m218.53 378.32a34.93 34.93 0 0 1 -24.88-10.32l-89.32-89.3a25 25 0 1 1 35.36-35.36l78.84 78.84 153.82-153.86a25 25 0 0 1 35.36 35.36l-164.29 164.32a35 35 0 0 1 -24.89 10.32z"/></svg>