<?xml version="1.0" encoding="UTF-8"?>
<svg width="20px" height="20px" viewBox="0 0 20 20" version="1.1" xmlns="http://www.w3.org/2000/svg" xmlns:xlink="http://www.w3.org/1999/xlink">
    <title>user-interface</title>
    <g id="CE-Live-Call-Pages" stroke="none" stroke-width="1" fill="none" fill-rule="evenodd">
        <g id="CE-Call-History" transform="translate(-521.000000, -1141.000000)" fill="#15A67D" fill-rule="nonzero">
            <g id="user-interface" transform="translate(521.000000, 1141.000000)">
                <path d="M0.0692307692,18.8923077 C0.259879341,19.5459916 0.857551863,19.9965929 1.53846154,20 L12.6307692,20 C13.4804381,20 14.1692308,19.3112073 14.1692308,18.4615385 C14.1692308,17.6118696 13.4804381,16.9230769 12.6307692,16.9230769 L5.25384615,16.9230769 L19.5461538,2.62307692 C20.0688874,2.0126765 20.033742,1.1027782 19.4654819,0.534518122 C18.8972218,-0.0337419534 17.9873235,-0.0688873784 17.3769231,0.453846154 L3.07692308,14.7461538 L3.07692308,7.36923077 C3.07692308,6.51956192 2.38813038,5.83076923 1.53846154,5.83076923 C0.688792693,5.83076923 -1.66520522e-06,6.51956192 -1.66520522e-06,7.36923077 L-1.66520522e-06,18.4615385 C-0.00022892875,18.6079161 0.0231480634,18.753373 0.0692307692,18.8923077 Z" id="Path"></path>
            </g>
        </g>
    </g>
</svg>