<?xml version="1.0" encoding="UTF-8"?>
<svg width="20px" height="20px" viewBox="0 0 20 20" version="1.1" xmlns="http://www.w3.org/2000/svg" xmlns:xlink="http://www.w3.org/1999/xlink">
    <title>user-interface</title>
    <g id="CE-Live-Call-Pages" stroke="none" stroke-width="1" fill="none" fill-rule="evenodd">
        <g id="CE-Call-History" transform="translate(-521.000000, -1279.000000)" fill="#FE3C32" fill-rule="nonzero">
            <g id="user-interface" transform="translate(531.041955, 1288.958046) scale(-1, -1) translate(-531.041955, -1288.958046) translate(521.083907, 1279.000000)">
                <path d="M0.0692324344,18.8084003 C0.259881006,19.4620843 0.857553528,19.9126856 1.5384632,19.9160927 L12.6307709,19.9160927 C13.4804397,19.9160927 14.1692324,19.2273 14.1692324,18.3776311 C14.1692324,17.5279623 13.4804397,16.8391696 12.6307709,16.8391696 L5.25384782,16.8391696 L19.5461555,2.53916957 C20.068889,1.92876915 20.0337436,1.01887085 19.4654835,0.450610772 C18.8972235,-0.117649303 17.9873252,-0.152794728 17.3769247,0.369938804 L3.07692474,14.6622465 L3.07692474,7.28532342 C3.07692474,6.43565457 2.38813205,5.74686188 1.5384632,5.74686188 C0.688794358,5.74686188 0,6.43565457 0,7.28532342 L0,18.3776311 C-0.000227263545,18.5240088 0.0231497286,18.6694656 0.0692324344,18.8084003 Z" id="Path"></path>
            </g>
        </g>
    </g>
</svg>