<?xml version="1.0" encoding="UTF-8"?>
<svg width="639px" height="570px" viewBox="0 0 639 570" version="1.1" xmlns="http://www.w3.org/2000/svg" xmlns:xlink="http://www.w3.org/1999/xlink">
    <title>Group 4</title>
    <g id="CE-Live-Call" stroke="none" stroke-width="1" fill="none" fill-rule="evenodd">
        <g id="Artboard" transform="translate(-224.000000, -1642.000000)">
            <g id="Group-4" transform="translate(224.000000, 1642.000000)">
                <path d="M0,0 L639,0 L639,541 C555.383787,550.13491 500.749615,555.910841 475.097485,558.327791 C470.197757,558.789445 449.429278,560.638536 444.32422,561.050919 C385.633006,565.791957 336.6916,568.162476 297.5,568.162476 C220.905897,568.162476 121.739231,559.108317 0,541 L0,0 Z" id="Rectangle" fill="#EEEEEE"></path>
                <g id="_427535760" transform="translate(54.000000, 82.000000)">
                    <rect id="Rectangle" fill="#63D7A3" x="50.2816397" y="137.411384" width="103.022708" height="84.6199975"></rect>
                    <path d="M46.0459581,300.499682 L143.87654,300.499682 C143.87654,300.499682 171.066883,298.312413 183.500658,319.911701 C195.797798,341.374285 223.944586,378.421166 223.944586,378.421166 L263.158799,335.495998 L291.168952,360.376191 L246.899247,415.741456 C246.899247,415.741456 232.962488,430.368822 214.790048,425.58417 C196.754242,420.799517 165.328218,381.018549 165.328218,381.018549 L165.328218,483 L42.6300859,471.185843 L42.6300859,439.664719 C42.6300859,439.664719 33.3389133,439.528014 23.6378361,436.383814 C1.33049127e-12,422.986787 5.46539562,399.747046 5.46539562,399.747046 L11.6139657,335.906111 L11.7506006,335.495998 C11.7506006,335.495998 17.6259009,300.362978 46.0459581,300.499682 Z" id="Path" fill="#FFFFFF"></path>
                    <polyline id="Path" stroke="#000000" stroke-width="0.5" stroke-linecap="round" stroke-linejoin="round" points="57.9331936 346.84246 53.9707818 395.919324 52.6863403 412.922577 88.613418 441.094872"></polyline>
                    <line x1="31.5" y1="446.5" x2="81.5" y2="477.5" id="Path" stroke="#000000" stroke-width="0.5"></line>
                    <g id="Group-2" transform="translate(247.000000, 0.000000)">
                        <rect id="Rectangle" stroke="#000000" stroke-width="0.5" fill="#FFFFFF" x="0" y="0" width="204" height="301" rx="14"></rect>
                        <path d="M79.2832419,50.7671078 L74.2675059,101.303867 C74.2675059,101.303867 72.5955939,111.200649 77.6113299,118.570593 C82.6270658,125.940537 93.9124717,127.203956 93.9124717,127.203956 L93.7034827,159 L133.620381,159 L132.157458,110.779509 C132.157458,110.779509 144.487809,112.253498 150.339501,97.0924702 C156.191193,81.7208727 144.696798,81.0891632 144.696798,81.0891632 C144.696798,81.0891632 157.027149,36.6589292 79.2832419,50.7671078 Z" id="Path" stroke="#000000" stroke-width="0.5" fill="#FFFFFF" stroke-linecap="round" stroke-linejoin="round"></path>
                        <path d="M74.6125236,93.855387 C73.7718937,102.29952 72.0906339,110.954756 77.1344132,118.343372 C82.1781924,125.731988 93.1063808,126.998608 93.5266957,126.998608 L93.5266957,126.998608 C126.101103,127.209711 129.67378,103.355036 130.094095,96.3886268 C131.144883,79.2892581 157.834881,77.178225 150.269212,96.8108334 C150.059055,97.4441434 149.848897,97.86635 149.428582,98.4996599 C149.428582,98.4996599 162.87866,79.2892581 160.777086,65.1453359 C158.885668,51.0014137 144.594961,52.0569303 144.594961,52.0569303 C144.594961,52.0569303 142.703543,41.9239711 126.731576,37.7019048 C76.9242557,24.6134991 39.0959114,63.6676127 78.1852005,57.3345132 C85.9610269,56.4900999 99.4111049,55.85679 112.861183,58.3900298 C133.666772,61.9787862 131.985512,71.9006421 131.144883,79.2892581 L130.934725,80.1336714 C130.51441,84.3557377 127.572206,98.7107633 106.346301,101.455106 C91.425121,103.355036 80.4969327,97.86635 74.6125236,93.855387 Z" id="Path" fill="#000000"></path>
                        <path d="M72.4038143,151.020966 L149.604478,151.020966 C149.604478,151.020966 185.687396,149.346205 192.820066,175.933035 C199.952736,202.310519 200.58209,214.452536 200.58209,214.452536 L215.266998,164.419054 L261,178.026486 L236.035655,276 L8,276 L33.8034826,184.516185 C33.8034826,184.516185 39.0480929,151.020966 72.4038143,151.020966 Z" id="Path" stroke="#000000" stroke-width="0.5" fill="#FFFFFF" stroke-linecap="round" stroke-linejoin="round"></path>
                        <line x1="172" y1="191" x2="175" y2="277" id="Path" stroke="#000000" stroke-width="0.5" stroke-linecap="round" stroke-linejoin="round"></line>
                        <line x1="51" y1="189" x2="41" y2="276" id="Path" stroke="#000000" stroke-width="0.5" stroke-linecap="round" stroke-linejoin="round"></line>
                        <polygon id="Path" fill="#3DB271" points="97.8414634 164.62543 104.268293 175.106529 91 261.680412 106.54878 273 125 261.051546 117.743902 174.058419 123.963415 164.835052 110.902439 151"></polygon>
                        <path d="M95.80444,76 C94.0444,79.7113402 87.3953601,89.814433 91.1110001,93.3195876 C93.45772,95.5876289 96,96 96,96" id="Path" stroke="#000000" stroke-width="0.5" stroke-linecap="round" stroke-linejoin="round"></path>
                        <ellipse id="Oval" fill="#FFFFFF" cx="94.5" cy="108" rx="3.5" ry="4"></ellipse>
                        <path d="M215,164.329323 L216.266667,136.357016 C216.266667,136.357016 216.688889,122.476021 224.5,121.845067 C228.722222,121.424431 233.155556,122.686339 236.111111,123.948248 L243.711111,102.495801 C244.555556,99.7616661 247.511111,98.2894394 250.255556,99.3410299 L250.255556,99.3410299 C253,100.182302 254.477778,103.126756 253.633333,105.860891 L241.6,140.142742 L272,147.924511 L261.022222,178 L215,164.329323 Z" id="Path" stroke="#000000" stroke-width="0.5" fill="#FFFFFF" stroke-linecap="round" stroke-linejoin="round"></path>
                        <path d="M252.619104,123.239903 L252.619104,123.239903 C255.26337,124.301461 256.687205,127.273823 255.67018,130.033874 L250.788459,144.471064 C249.974839,147.231114 246.923764,148.717296 244.482903,147.655738 L244.482903,147.655738 C241.838638,146.806491 240.414803,143.834129 241.228423,141.074078 L246.110143,126.424577 C247.127169,123.876838 249.974839,122.390656 252.619104,123.239903 Z" id="Path" stroke="#000000" stroke-width="0.5" fill="#FFFFFF"></path>
                        <path d="M262.682204,127.344283 L262.682204,127.344283 C265.340506,128.193579 266.567415,131.166118 265.749476,133.926332 L260.841842,148.364374 C260.023903,151.124589 256.956632,152.610858 254.29833,151.761561 L254.29833,151.761561 C251.844513,150.69994 250.41312,147.727402 251.231059,144.967188 L256.138693,130.529145 C257.161116,127.768931 260.023903,126.282662 262.682204,127.344283 Z" id="Path" stroke="#000000" stroke-width="0.5" fill="#FFFFFF"></path>
                        <path d="M272.70167,130.342831 L272.70167,130.342831 C275.155487,131.188547 276.58688,134.359983 275.768941,137.10856 L270.861307,151.485733 C269.838884,154.234311 266.976097,155.714314 264.317796,154.657169 L264.317796,154.657169 C261.659494,153.811453 260.432585,150.640017 261.250524,147.89144 L266.158158,133.514267 C266.976097,130.765689 270.043368,129.285686 272.70167,130.342831 Z" id="Path" stroke="#000000" stroke-width="0.5" fill="#FFFFFF"></path>
                        <path d="M235.977143,124 C242.240266,125.704142 244.954286,129.751479 243.701661,133.159763 C242.866578,135.928994 240.152558,137.846154 235.559601,136.994083 L227,134.43787 C227,134.43787 237.020997,141.254438 238.064851,149.136095 C239.108704,157.230769 237.85608,160 237.85608,160" id="Path" stroke="#000000" stroke-width="0.5" stroke-linecap="round" stroke-linejoin="round"></path>
                        <line x1="211" y1="180" x2="257" y2="194" id="Path" stroke="#000000" stroke-width="0.5" stroke-linecap="round" stroke-linejoin="round"></line>
                        <path d="M135,101 C136.227273,97.4827586 137.659091,90.862069 144,89" id="Path" stroke="#000000" stroke-width="0.5" stroke-linecap="round" stroke-linejoin="round"></path>
                        <line x1="190" y1="249" x2="200" y2="215" id="Path" stroke="#000000" stroke-width="0.5" stroke-linecap="round" stroke-linejoin="round"></line>
                        <path d="M110,69.1066091 C112.333333,68.7910439 114.878788,69.1066091 117,71" id="Path" stroke="#000000" stroke-width="0.5" stroke-linecap="round" stroke-linejoin="round"></path>
                        <path d="M91,68 C88.7352941,65.7441899 86.2647059,65.1802374 84,67.4360475" id="Path" stroke="#000000" stroke-width="0.5" stroke-linecap="round" stroke-linejoin="round"></path>
                        <path d="M0,276 L204,276 L204,286 C204,293.731986 197.731986,300 190,300 L14,300 C6.2680135,300 9.46895252e-16,293.731986 0,286 L0,276 L0,276 Z" id="Rectangle" fill="#A2A2A2"></path>
                        <g id="Group" transform="translate(82.000000, 137.000000)" fill="#FFFFFF" stroke="#000000" stroke-width="0.5">
                            <polygon id="Path" points="11.9163763 2.09150327 29.0592334 13.8039216 11.9163763 31.5816993 0 13.8039216"></polygon>
                            <polygon id="Path" points="51.010453 0 29.0592334 13.8039216 46.4111498 32 60 13.8039216"></polygon>
                        </g>
                        <line x1="54" y1="118" x2="42" y2="123" id="Path" stroke="#FFDF59" stroke-width="0.5" stroke-linecap="round" stroke-linejoin="round"></line>
                        <line x1="52" y1="100" x2="32" y2="92" id="Path" stroke="#FFDF59" stroke-width="0.5" stroke-linecap="round" stroke-linejoin="round"></line>
                        <line x1="284" y1="160" x2="291" y2="140" id="Path" stroke="#63D7A3" stroke-width="0.5" stroke-linecap="round" stroke-linejoin="round"></line>
                    </g>
                    <circle id="Oval" fill="#000000" transform="translate(319.623168, 155.664149) rotate(6.709481) translate(-319.623168, -155.664149) " cx="319.623168" cy="155.664149" r="1"></circle>
                    <circle id="Oval" fill="#000000" transform="translate(302.185823, 154.759167) rotate(6.709481) translate(-302.185823, -154.759167) " cx="302.185823" cy="154.759167" r="1"></circle>
                    <polygon id="Rectangle" fill="#3DB271" transform="translate(465.224760, 50.481739) rotate(-20.149646) translate(-465.224760, -50.481739) " points="431.097338 13.5077575 499.364337 13.4965339 499.352182 87.4557201 431.085183 87.4669436"></polygon>
                    <path d="M468.708981,70.5330961 C465.839648,71.2166179 463.38022,71.626731 461.330697,71.7634354 C459.417808,71.7634354 457.914824,71.626731 456.95838,71.4900266 L456.95838,63.971287 C458.597999,64.1079913 460.374252,64.1079913 462.423776,63.971287 C464.473299,63.8345826 466.659457,63.4244695 468.708981,62.6042434 C471.031774,61.7840172 472.534758,60.8270867 473.217932,59.8701562 C473.764472,58.9132257 473.901107,57.8195909 473.491202,56.725956 C473.217932,55.9057299 472.808027,55.3589124 472.261488,54.9487994 C471.714948,54.6753906 471.031774,54.2652776 470.211965,54.1285732 C469.392155,53.9918689 468.435711,53.8551645 467.342632,53.8551645 C466.112918,53.7184601 464.883204,53.7184601 463.38022,53.7184601 C461.877236,53.7184601 460.510887,53.7184601 459.007903,53.5817558 C457.641555,53.4450514 456.275206,53.1716427 455.045492,52.7615296 C453.679143,52.3514166 452.586064,51.6678948 451.492985,50.7109643 C450.53654,49.7540338 449.716731,48.3869902 449.033556,46.7465379 C448.623652,45.5161987 448.350382,44.1491551 448.213747,42.7821115 C448.213747,41.5517723 448.350382,40.1847287 448.760287,38.9543895 C449.170191,37.7240503 449.853366,36.4937111 450.946445,35.4000762 C451.902889,34.3064413 453.132603,33.2128065 454.772222,32.3925803 L452.449429,26.1041799 L459.691078,23.3700927 L462.013871,29.3850845 C464.063394,28.838267 465.839648,28.5648583 467.479267,28.4281539 C469.118885,28.2914496 470.348599,28.1547452 471.305044,28.2914496 L472.124853,35.9468936 C470.621869,35.8101893 468.98225,35.9468936 467.205997,36.083598 C465.293108,36.3570067 463.516855,36.7671198 461.603966,37.4506416 C459.827713,38.1341634 458.597999,38.9543895 458.051459,39.91132 C457.368285,40.8682505 457.23165,41.825181 457.641555,42.7821115 C457.914824,43.3289289 458.188094,43.8757464 458.597999,44.2858595 C459.007903,44.5592682 459.554443,44.8326769 460.237617,44.9693812 C460.920792,45.1060856 461.740601,45.24279 462.560411,45.24279 C463.516855,45.24279 464.609934,45.24279 465.839648,45.24279 C467.752536,45.24279 469.665425,45.3794943 471.305044,45.652903 C473.081297,45.7896074 474.584281,46.1997205 476.087265,46.7465379 C477.453614,47.2933553 478.683328,48.1135815 479.776407,49.2072163 C480.869486,50.1641468 481.689295,51.5311904 482.235835,53.3083471 C482.64574,54.4019819 482.919009,55.6323211 483.055644,56.8626604 C483.055644,58.2297039 482.919009,59.4600432 482.509105,60.6903824 C481.962565,61.9207216 481.279391,63.1510608 480.186312,64.3814 C479.229867,65.4750349 477.726883,66.5686698 475.95063,67.6623046 L478.546693,74.6342269 L471.305044,77.368314 L468.708981,70.5330961 Z" id="Path" fill="#FFFFFF"></path>
                    <line x1="246.5" y1="283.5" x2="379.5" y2="283.5" id="Path" stroke="#000000" stroke-width="0.5" stroke-linecap="round" stroke-linejoin="round"></line>
                    <ellipse id="Oval" stroke="#000000" stroke-width="0.5" cx="141.417112" cy="109.250286" rx="6.69510964" ry="6.69851353"></ellipse>
                    <line x1="28.4200572" y1="272.20188" x2="15.3031077" y2="285.872316" id="Path" stroke="#F86667" stroke-width="0.5" stroke-linecap="round" stroke-linejoin="round"></line>
                    <line x1="18.9922498" y1="140.07712" x2="56.9767494" y2="140.07712" id="Path" stroke="#ADADAD" stroke-width="0.5" stroke-linecap="round" stroke-linejoin="round"></line>
                    <line x1="18.9922498" y1="155.661417" x2="51.5113538" y2="155.661417" id="Path" stroke="#ADADAD" stroke-width="0.5" stroke-linecap="round" stroke-linejoin="round"></line>
                    <line x1="183.364023" y1="193.938637" x2="231.869409" y2="193.938637" id="Path" stroke="#63D7A3" stroke-width="0.5" stroke-linecap="round" stroke-linejoin="round"></line>
                    <ellipse id="Oval" stroke="#FFDF59" stroke-width="0.5" cx="168.060915" cy="278.626985" rx="6.69510964" ry="6.69851353"></ellipse>
                    <polygon id="Path" fill="#5DA6D3" points="174.550181 27.3195273 264.319305 27.3195273 264.319305 83.0949053 264.319305 96.9020455 245.053785 83.0949053 174.550181 83.0949053"></polygon>
                    <path d="M201.740525,48.2352941 C204.609857,48.2352941 206.932651,50.6959725 206.932651,53.566764 C206.932651,56.4375556 204.609857,58.7615296 201.740525,58.7615296 C198.734557,58.7615296 196.411764,56.4375556 196.411764,53.566764 C196.411764,50.6959725 198.734557,48.2352941 201.740525,48.2352941 Z M219.50306,48.2352941 C222.372393,48.2352941 224.695186,50.6959725 224.695186,53.566764 C224.695186,56.4375556 222.372393,58.7615296 219.50306,58.7615296 C216.497093,58.7615296 214.1743,56.4375556 214.1743,53.566764 C214.1743,50.6959725 216.497093,48.2352941 219.50306,48.2352941 Z M237.128961,48.2352941 C234.259629,48.2352941 231.936835,50.6959725 231.936835,53.566764 C231.936835,56.4375556 234.259629,58.7615296 237.128961,58.7615296 C240.134929,58.7615296 242.457722,56.4375556 242.457722,53.566764 C242.457722,50.6959725 240.134929,48.2352941 237.128961,48.2352941 Z" id="Shape" fill="#FFFFFF"></path>
                    <path d="M40.1609497,471.185843 L32.2458342,446.5 C32.2458342,446.5 31.2897942,446.5 23.6378361,436.383814 C1.33049127e-12,422.986787 5.46539562,399.747046 5.46539562,399.747046 L11.6139657,335.906111 L11.7506006,335.495998 C11.7506006,335.495998 17.6259009,300.362978 46.0459581,300.499682 L143.87654,300.499682 C143.87654,300.499682 171.066883,298.312413 183.500658,319.911701 C195.797798,341.374285 223.944586,378.421166 223.944586,378.421166 L263.158799,335.495998 L291.168952,360.376191 L246.899247,415.741456 C246.899247,415.741456 232.962488,430.368822 214.790048,425.58417 C196.754242,420.799517 165.328218,381.018549 165.328218,381.018549 L165.328218,483 L40.1609497,471.185843 Z" id="Path" stroke="#000000" stroke-width="0.5" stroke-linecap="round" stroke-linejoin="round"></path>
                    <line x1="166.694569" y1="349.713251" x2="165.328218" y2="381.018549" id="Path" stroke="#000000" stroke-width="0.5" stroke-linecap="round" stroke-linejoin="round"></line>
                    <path d="M308.521583,322.098971 L321.228628,322.098971 C323.414786,322.098971 325.327675,324.012832 325.327675,326.200102 L325.327675,326.200102 C325.327675,328.387371 323.414786,330.301232 321.228628,330.301232 C323.414786,330.301232 325.327675,332.078389 325.327675,334.265659 L325.327675,334.265659 C325.327675,336.452928 323.414786,338.366789 321.228628,338.366789 C323.414786,338.366789 325.327675,340.143946 325.327675,342.331216 L325.327675,342.331216 C325.327675,344.65519 323.414786,346.432347 321.228628,346.432347 L315.216693,346.432347 C317.402851,346.432347 319.179104,348.209503 319.179104,350.533477 L319.179104,350.533477 C319.179104,352.720747 317.402851,354.497904 315.216693,354.497904 L306.062155,354.497904 C299.50368,354.497904 291.168952,360.376191 291.168952,360.376191 L263.158799,335.495998 C270.263814,328.387371 277.778733,317.99784 288.026349,316.220684 C297.317522,314.716936 304.832441,314.443527 304.832441,314.443527 C304.832441,314.443527 308.521583,314.85364 309.341392,317.861136 C310.297837,320.731927 308.521583,322.098971 308.521583,322.098971 Z" id="Path" stroke="#000000" stroke-width="0.5" fill="#FFFFFF" stroke-linecap="round" stroke-linejoin="round"></path>
                    <path d="M301.553204,347.495606 C302.099743,347.275902 302.782918,346.836494 303.466092,346.61679 C307.018599,345.51827 315.216693,346.61679 315.216693,346.61679" id="Path" stroke="#000000" stroke-width="0.5" stroke-linecap="round" stroke-linejoin="round"></path>
                    <path d="M300.870029,340.007242 C302.509648,339.32372 304.559171,338.640198 306.745329,338.366789 C311.937455,337.546563 321.228628,338.366789 321.228628,338.366789" id="Path" stroke="#000000" stroke-width="0.5" stroke-linecap="round" stroke-linejoin="round"></path>
                    <path d="M300.32349,332.215093 C302.099743,331.394867 304.285901,330.574641 306.335425,330.164528 C311.254281,329.481006 321.228628,330.301232 321.228628,330.301232" id="Path" stroke="#000000" stroke-width="0.5" stroke-linecap="round" stroke-linejoin="round"></path>
                    <path d="M308.521583,322.098971 C308.521583,322.098971 304.012632,322.509084 300.596759,323.739423 C297.044252,325.106467 294.448189,327.157032 294.448189,327.157032 C294.448189,327.157032 294.038285,332.215093 292.671936,335.906111 C291.442222,339.597129 290.759047,340.28065 290.759047,340.28065" id="Path" stroke="#000000" stroke-width="0.5" stroke-linecap="round" stroke-linejoin="round"></path>
                    <g id="Group" transform="translate(420.698828, 325.448228)" stroke="#F86667" stroke-linecap="round" stroke-linejoin="round" stroke-width="0.5">
                        <line x1="0" y1="0.683523275" x2="37.9844996" y2="0.683523275" id="Path"></line>
                        <line x1="0" y1="16.2678201" x2="37.9844996" y2="16.2678201" id="Path"></line>
                        <line x1="0" y1="31.8521168" x2="37.9844996" y2="31.8521168" id="Path"></line>
                    </g>
                    <ellipse id="Oval" stroke="#FF98E1" stroke-width="0.5" cx="450.07533" cy="399.063524" rx="6.69510964" ry="6.69851353"></ellipse>
                    <path d="M328.197007,308.428535 C334.072308,312.392961 337.21491,319.091475 336.121831,326.200102" id="Path" stroke="#63D7A3" stroke-width="0.5" stroke-linecap="round" stroke-linejoin="round"></path>
                    <line x1="393.09858" y1="377.327531" x2="409.358132" y2="422.166561" id="Path" stroke="#FFDF59" stroke-width="0.5" stroke-linecap="round" stroke-linejoin="round"></line>
                    <line x1="254.277531" y1="345.202007" x2="282.424319" y2="371.31254" id="Path" stroke="#000000" stroke-width="0.5" stroke-linecap="round" stroke-linejoin="round"></line>
                    <g id="Group-3" transform="translate(111.477353, 463.936222) rotate(10.000000) translate(-111.477353, -463.936222) translate(84.603270, 445.481133)" stroke="#000000" stroke-width="0.5">
                        <path d="M0.136634891,0 L0,36.9101766 C0,36.9101766 18.0358056,34.5862025 25.9606292,28.7079151 C34.0220878,22.8296277 45.3627837,37.046881 50.6915444,35.9532461 C56.0203051,34.7229069 52.8777027,28.7079151 52.3311631,28.1610977 C51.9212584,27.7509846 51.6479886,18.0449752 39.2142136,10.6629399 C26.7804386,3.28090459 0.136634891,0 0.136634891,0 Z" id="Path" fill="#FFFFFF"></path>
                        <path d="M36.0716111,17.3614534 C40.7171974,18.8652014 48.0954815,23.5131495 52.3311631,28.1610977" id="Path" stroke-linecap="round" stroke-linejoin="round"></path>
                        <path d="M9.42780745,1.50374794 C14.3466635,1.50374794 31.2893899,1.36704358 34.8418971,0.273408716 C37.9844996,-0.546817431 40.8538323,5.1947656 35.6617064,8.88578326 C27.7368828,5.33146995 17.0793613,2.87079151 9.42780745,1.50374794 Z" id="Path" fill="#FFFFFF"></path>
                    </g>
                    <path d="M77.3353481,193.870283 L132.535844,190.042561 L142.510191,247.184983 C142.510191,247.184983 147.838952,270.424724 138.274509,279.994029 C128.710067,289.700038 113.953499,283.001525 113.953499,283.001525 L115.183213,302.00343 C115.183213,302.413543 115.319848,302.823656 115.319848,303.23377 C115.319848,317.314318 102.749438,321.552153 88.5394091,317.724431 C74.1927456,313.896709 74.4660154,303.23377 74.4660154,303.23377 L73.9194758,261.128827 C73.9194758,261.128827 54.1065531,258.39474 54.1065531,241.4434 C53.9707818,224.628764 70.0936989,229.823529 70.0936989,229.823529 C70.0936989,229.823529 61.7589705,195.64744 77.3353481,193.870283 Z" id="Path" stroke="#000000" stroke-width="0.5" fill="#FFFFFF" stroke-linecap="round" stroke-linejoin="round"></path>
                    <path d="M134.585367,202.072545 C128.710067,202.345953 119.965434,202.209249 106.575215,202.345953 C75.4224596,202.619362 84.1670926,246.228052 82.2542041,246.364757 C80.2046808,246.638165 79.6581412,241.169991 76.9254434,236.658747 C74.0561107,232.284208 69.5471593,231.053869 69.5471593,231.053869 C69.5471593,231.053869 53.9707818,224.628764 54.1074167,241.4434 C54.1074167,258.39474 73.9194758,261.128827 73.9194758,261.128827 L74.0561107,267.143819 C71.8699525,267.964045 69.1372546,268.237454 65.9946522,267.417228 C55.3371307,264.546436 53.5608771,254.977131 53.5608771,254.977131 C53.5608771,254.977131 47.0024024,257.164401 39.6241183,249.782366 C32.2458342,242.40033 36.208246,231.600686 36.208246,231.600686 C36.208246,231.600686 29.923041,227.362851 31.5626597,216.563207 C33.3389133,205.900267 42.0835463,202.482658 42.0835463,202.482658 C42.0835463,202.482658 42.9033556,195.100623 47.6855768,190.452674 C52.3311631,185.804726 61.212431,186.214839 61.212431,186.214839 C61.212431,186.214839 60.2559868,178.559395 65.1748428,175.688604 C70.0936989,172.817812 76.9254434,174.184856 76.9254434,174.184856 C76.9254434,174.184856 81.161125,164.888959 92.5018209,164.888959 C103.842517,164.888959 110.674261,173.36463 110.674261,173.36463 C110.674261,173.36463 116.276292,164.068733 128.983337,167.349638 C141.553747,170.630542 141.280477,184.574387 141.280477,184.574387 C141.280477,184.574387 146.199333,185.668022 145.926063,193.46017 C145.516158,201.252319 134.585367,202.072545 134.585367,202.072545 Z" id="Path" fill="#000000"></path>
                    <path d="M74.1927456,250.055774 C71.4600478,246.228052 66.5411917,241.169991 62.0322403,239.392834" id="Path" stroke="#000000" stroke-width="0.5" stroke-linecap="round" stroke-linejoin="round"></path>
                    <circle id="Oval" fill="#000000" transform="translate(106.271885, 228.594557) scale(-1, 1) rotate(6.709479) translate(-106.271885, -228.594557) " cx="106.271885" cy="228.594557" r="1"></circle>
                    <path d="M123.244671,222.851607 C127.616988,229.276712 145.789428,245.681235 127.753623,251.832931" id="Path" stroke="#000000" stroke-width="0.5" stroke-linecap="round" stroke-linejoin="round"></path>
                    <g id="Group-2" transform="translate(283.000000, 375.000000)" fill-rule="nonzero">
                        <circle id="Oval" fill="#F44134" cx="128" cy="22" r="22"></circle>
                        <circle id="Oval" fill="#FFFFFF" cx="75" cy="22" r="22"></circle>
                        <circle id="Oval" fill="#FFFFFF" cx="22" cy="22" r="22"></circle>
                        <path d="M120.612381,26.1040479 L120.755893,25.9627722 L123.149159,23.6337572 C123.600049,23.2023076 124.066595,22.754596 124.068682,22.1076756 C124.069726,21.739241 123.910558,21.3936747 123.601615,21.0780914 C125.887899,19.3456864 129.114058,19.3456864 131.399299,21.0775832 C131.090355,21.3931665 130.930665,21.739241 130.931709,22.1081838 C130.93484,22.754596 131.400342,23.2017994 131.851754,23.6337572 L131.996832,23.7735083 L134.388011,26.1035397 C134.831595,26.5431203 135.290835,26.9969301 135.954645,26.9999897 C136.350217,27.0015038 136.720219,26.8363434 137.054211,26.5105964 L139.302921,24.3213325 C140.23236,23.4157456 140.23236,21.9430234 139.302921,21.0374365 L138.740874,20.4901206 L137.054733,18.8481726 C131.786521,13.7175299 123.214392,13.7170217 117.945658,18.8481726 L116.258996,20.4901206 L115.697471,21.0374365 C114.76751,21.9430234 114.76751,23.4157456 115.697471,24.3213325 L117.94618,26.5105964 C118.281217,26.8363434 118.651218,27.0015038 119.045225,26.999471 C119.709557,26.9974383 120.167753,26.5405794 120.612381,26.1040479 Z M116.821043,23.2261923 C116.511578,22.92433 116.511578,22.4329144 116.821043,22.1310521 L117.384133,21.5837362 L119.069752,19.9417882 C123.718512,15.4143619 131.281879,15.4148701 135.931161,19.9417882 L137.617302,21.5837362 L138.178827,22.1310521 C138.489858,22.4329144 138.489858,22.92433 138.178827,23.2261923 L135.941076,25.4058007 C135.82157,25.3153437 135.647267,25.1415442 135.520976,25.0175469 L135.368592,24.8681403 L132.966976,22.5304861 C132.838598,22.4080133 132.661164,22.2377711 132.567751,22.1219048 L133.120926,21.5842443 L133.682451,21.0369284 L133.120926,20.4896124 C130.021579,17.4714976 124.977769,17.4720058 121.879465,20.4896124 L121.317418,21.0369284 L121.879465,21.5842443 L122.432119,22.122413 C122.338705,22.2377711 122.160228,22.4085215 122.032893,22.5304861 L121.879465,22.6788763 L119.478893,25.0185632 C119.351559,25.1430687 119.177778,25.3153437 119.058793,25.4068171 L116.821043,23.2261923 Z" id="Shape" fill="#FFFFFF"></path>
                        <g id="Group" transform="translate(14.000000, 11.000000)" fill="#757575">
                            <path d="M7.02644444,15.9673684 C3.41548148,15.9673684 0.477555556,12.9852632 0.477555556,9.32052632 L0.477555556,8.11157895 C0.477555556,7.66736842 0.832222222,7.30578947 1.27088889,7.30578947 C1.70903704,7.30578947 2.06474074,7.66736842 2.06474074,8.11157895 L2.06474074,9.32052632 C2.06474074,12.0973684 4.29022222,14.3563158 7.02644444,14.3563158 C9.76111111,14.3563158 11.9871111,12.0973684 11.9871111,9.32052632 L11.9871111,8.11157895 C11.9871111,7.66736842 12.3428148,7.30578947 12.780963,7.30578947 C13.2191111,7.30578947 13.5742963,7.66736842 13.5742963,8.11157895 L13.5742963,9.32052632 C13.5742963,12.9852632 10.6363704,15.9673684 7.02644444,15.9673684 Z" id="Path"></path>
                            <path d="M7.02644444,12.7447368 C5.166,12.7447368 3.65296296,11.2084211 3.65296296,9.32052632 L3.65296296,3.68052632 C3.65296296,1.79263158 5.166,0.256315789 7.02644444,0.256315789 C8.88585185,0.256315789 10.3999259,1.79210526 10.3999259,3.68052632 L10.3999259,9.32052632 C10.3999259,11.2078947 8.88585185,12.7447368 7.02644444,12.7447368 Z" id="Path"></path>
                            <path d="M7.02644444,19.5931579 C6.58725926,19.5931579 6.23207407,19.2326316 6.23207407,18.7873684 L6.23207407,15.3631579 C6.23207407,14.9178947 6.58777778,14.5568421 7.02644444,14.5568421 C7.46459259,14.5568421 7.81977778,14.9178947 7.81977778,15.3631579 L7.81977778,18.7873684 C7.81977778,19.2326316 7.46459259,19.5931579 7.02644444,19.5931579 Z" id="Path"></path>
                            <path d="M10.7960741,19.5931579 L3.25525926,19.5931579 C2.81659259,19.5931579 2.46192593,19.2326316 2.46192593,18.7873684 C2.46192593,18.3426316 2.81659259,17.9815789 3.25525926,17.9815789 L10.7960741,17.9815789 C11.2342222,17.9815789 11.589408,18.3431579 11.589408,18.7873684 C11.5899259,19.2326316 11.2342222,19.5931579 10.7960741,19.5931579 Z" id="Path"></path>
                        </g>
                        <path d="M70.3998427,28 L78.3998424,28 C79.7234587,28 80.80021,26.9069758 80.80021,25.5627 L80.80021,24.2739023 L84.0000002,27.5241691 L84.0000002,15.4763644 L80.80021,18.7266311 L80.80021,17.4378334 C80.80021,16.0935577 79.7234587,15 78.3998424,15 L70.3998427,15 C69.0762265,15 68.0000002,16.0935577 68.0000002,17.4378334 L68.0000002,25.5627 C67.9994751,26.9069758 69.0762265,28 70.3998427,28 Z M82.3995797,19.398769 L82.3995797,23.6006976 L80.7996848,21.9758309 L80.7996848,21.0236356 L82.3995797,19.398769 Z M69.5998953,17.4378334 C69.5998953,16.9897415 69.9586373,16.6254001 70.3998427,16.6254001 L78.3998424,16.6254001 C78.8420983,16.6254001 79.1997899,16.9902749 79.1997899,17.4378334 L79.1997899,25.5627 C79.1997899,26.010792 78.8420983,26.3751334 78.3998424,26.3751334 L70.3998427,26.3751334 C69.9586373,26.3751334 69.5998953,26.010792 69.5998953,25.5627 L69.5998953,17.4378334 Z" id="Shape" fill="#757575"></path>
                    </g>
                    <circle id="Oval" fill="#000000" transform="translate(133.560606, 222.693030) scale(-1, 1) rotate(6.709479) translate(-133.560606, -222.693030) " cx="133.560606" cy="222.69303" r="1"></circle>
                    <path d="M109.444547,255.934062 C110.264357,262.222462 116.686197,264.956549 121.605053,261.53894" id="Path" stroke="#000000" stroke-width="0.5" stroke-linecap="round" stroke-linejoin="round"></path>
                    <path d="M97.0107723,221.07445 C97.8305817,217.793546 100.153375,214.375937 104.935596,213.419006" id="Path" stroke="#000000" stroke-width="0.5" stroke-linecap="round" stroke-linejoin="round"></path>
                    <path d="M122.698132,210.138102 C122.698132,210.138102 124.747655,209.317876 127.480353,209.45458 C130.349686,209.727989 131.989304,211.64185 131.989304,211.64185" id="Path" stroke="#000000" stroke-width="0.5" stroke-linecap="round" stroke-linejoin="round"></path>
                    <line x1="0" y1="352.105579" x2="32.2458342" y2="352.105579" id="Path" stroke="#FF98E1" stroke-width="0.5" stroke-linecap="round" stroke-linejoin="round"></line>
                    <line x1="125.020925" y1="452.036464" x2="157.403394" y2="452.036464" id="Path" stroke="#FFFFFF" stroke-width="0.5" stroke-linecap="round" stroke-linejoin="round"></line>
                </g>
            </g>
        </g>
    </g>
</svg>