<?xml version="1.0" encoding="UTF-8"?>
<svg width="641px" height="517px" viewBox="0 0 641 517" version="1.1" xmlns="http://www.w3.org/2000/svg" xmlns:xlink="http://www.w3.org/1999/xlink">
    <title>user</title>
    <g id="CE-Live-Call" stroke="none" stroke-width="1" fill="none" fill-rule="evenodd">
        <g id="Artboard" transform="translate(-934.000000, -1727.000000)">
            <g id="user" transform="translate(934.000000, 1727.203632)">
                <path d="M95.7440186,82.7963685 C63.2692977,183.751203 21.1243347,233.408892 5.47169915,282.064374 C-10.1809364,330.719857 -9.76713108,440.44417 256.543571,500.953567 C522.854274,561.462965 604.63032,432.563239 623.354989,379.37534 C749.813592,20.1664612 153.262956,-96.0102625 95.7440186,82.7963685 Z" id="Path" fill="#EFEFEF" fill-rule="nonzero"></path>
                <path d="M314.014529,63.648328 C354.343454,63.648328 413.004769,75.8453153 490.029058,99.9374883 L490.029058,99.9374883 L490.029058,345.712746 C490.029058,361.807001 485.731424,377.288607 477.947119,390.75468 C470.162813,404.220753 458.891837,415.671293 444.945151,423.703416 L444.945151,423.703416 L314.014529,499.108486 L183.083907,423.703416 C169.137222,415.671293 157.866245,404.220753 150.081939,390.75468 C142.297634,377.288607 138,361.807001 138,345.712746 L138,345.712746 L138,99.9374883 C215.024289,75.8453153 273.685604,63.648328 314.014529,63.648328 Z" id="Rectangle" stroke="#000000" stroke-width="20"></path>
                <path d="M471.912019,417.477648 L173.245352,417.477648 L180.925352,386.615426 C184.196463,373.673204 193.725352,363.433204 206.240907,359.308759 L263.414241,340.250981 C271.378685,336.97987 275.929796,329.868759 278.632019,322.188759 C279.627574,319.344315 280.338685,316.49987 280.907574,313.797648 C281.192019,312.517648 281.476463,311.237648 281.618685,310.09987 C282.614241,303.415426 282.614241,297.584315 282.614241,295.166537 C273.369796,287.486537 261.992019,274.25987 261.992019,263.024315 C261.992019,251.788759 255.592019,250.082092 255.592019,250.082092 C255.592019,250.082092 249.192019,234.010981 249.192019,224.33987 C249.192019,224.33987 249.192019,224.197648 249.334241,224.055426 C249.760907,222.775426 251.894241,217.93987 256.160907,217.93987 C256.160907,217.93987 256.160907,212.962092 256.160907,205.708759 C256.160907,205.566537 256.160907,205.566537 256.160907,205.424315 C256.445352,198.597648 256.872019,189.922092 256.872019,179.255426 C256.872019,170.722092 260.854241,160.33987 267.680907,150.668759 C270.240907,149.104315 272.374241,148.535426 272.374241,147.113204 C272.374241,146.117648 272.658685,144.97987 273.085352,143.69987 C285.032019,129.904315 302.667574,118.810981 322.578685,118.810981 C342.489796,118.810981 360.125352,129.904315 372.072019,143.69987 C372.498685,144.97987 372.78313,146.117648 372.78313,147.113204 C372.78313,148.535426 374.916463,149.104315 377.476463,150.668759 C384.30313,160.33987 388.285352,170.722092 388.285352,179.255426 C388.285352,189.922092 388.712019,198.597648 388.996463,205.424315 L388.996463,205.708759 L388.996463,217.93987 C393.26313,217.93987 395.396463,222.775426 395.82313,224.055426 C395.965352,224.197648 395.965352,224.33987 395.965352,224.33987 C395.965352,234.010981 389.565352,250.082092 389.565352,250.082092 C389.565352,250.082092 383.165352,251.788759 383.165352,263.024315 C383.165352,274.25987 371.787574,287.486537 362.54313,295.166537 C362.54313,297.442092 362.54313,303.273204 363.538685,310.09987 C363.680907,311.237648 363.965352,312.517648 364.249796,313.797648 C364.818685,316.642092 365.529796,319.344315 366.525352,322.188759 C369.227574,329.868759 373.778685,336.97987 381.74313,340.250981 L438.916463,359.308759 C451.432019,363.433204 460.960907,373.673204 464.232019,386.615426 L471.912019,417.477648 Z" id="Path" fill="#F3F3F1" fill-rule="nonzero"></path>
                <path d="M443.134241,453.922092 C443.134241,453.922092 521.356463,420.912315 521.356463,354.878537 C521.356463,328.46787 521.356463,295.44387 521.356463,295.44387 L443.134241,269.033204 L364.912019,295.44387 L364.912019,354.878537 C364.912019,420.912315 443.134241,453.922092 443.134241,453.922092 Z" id="Path" fill="#53D98F" fill-rule="nonzero"></path>
                <path d="M322.058685,295.166537 C322.058685,297.584315 322.058685,303.415426 321.06313,310.09987 C320.920907,311.237648 320.636463,312.517648 320.352019,313.797648 C319.78313,316.49987 319.072019,319.344315 318.076463,322.188759 C315.374241,329.868759 310.82313,336.97987 302.858685,340.250981 L245.685352,359.308759 C233.169796,363.433204 223.640907,373.673204 220.369796,386.615426 L212.689796,417.477648 L184.245352,417.477648 L191.925352,386.615426 C195.196463,373.673204 204.725352,363.433204 217.240907,359.308759 L274.414241,340.250981 C282.378685,336.97987 286.929796,329.868759 289.632019,322.188759 C290.627574,319.344315 291.338685,316.49987 291.907574,313.797648 C292.192019,312.517648 292.476463,311.237648 292.618685,310.09987 C293.614241,303.415426 293.614241,297.584315 293.614241,295.166537 C284.369796,287.486537 272.992019,274.25987 272.992019,263.024315 C272.992019,251.788759 266.592019,250.082092 266.592019,250.082092 C266.592019,250.082092 260.192019,234.010981 260.192019,224.33987 C260.192019,224.33987 260.192019,224.197648 260.334241,224.055426 C260.760907,222.775426 262.894241,217.93987 267.160907,217.93987 C267.160907,217.93987 267.160907,212.962092 267.160907,205.708759 C267.160907,205.566537 267.160907,205.566537 267.160907,205.424315 C267.445352,198.597648 267.872019,189.922092 267.872019,179.255426 C267.872019,170.722092 271.854241,160.33987 278.680907,150.668759 C281.240907,149.104315 283.374241,148.535426 283.374241,147.113204 C283.374241,146.117648 283.658685,144.97987 284.085352,143.69987 C296.032019,129.904315 313.667574,118.810981 333.578685,118.810981 C338.414241,118.810981 343.249796,119.522092 347.800907,120.802092 C333.86313,124.357648 321.489796,133.317648 312.529796,143.69987 C312.10313,144.97987 311.818685,146.117648 311.818685,147.113204 C311.818685,148.535426 309.685352,149.104315 307.125352,150.668759 C300.298685,160.33987 296.316463,170.722092 296.316463,179.255426 C296.316463,189.922092 295.889796,198.597648 295.605352,205.424315 L295.605352,205.708759 L295.605352,217.93987 C291.338685,217.93987 289.205352,222.775426 288.778685,224.055426 C288.636463,224.197648 288.636463,224.33987 288.636463,224.33987 C288.636463,234.010981 295.036463,250.082092 295.036463,250.082092 C295.036463,250.082092 301.436463,251.788759 301.436463,263.024315 C301.436463,274.25987 312.814241,287.486537 322.058685,295.166537 L322.058685,295.166537 Z" id="Path" fill="#D5DBE1" fill-rule="nonzero"></path>
                <path d="M457.356463,446.526537 C448.965352,451.504315 443.134241,453.922092 443.134241,453.922092 C443.134241,453.922092 364.912019,420.926537 364.912019,354.935426 C364.912019,315.255426 364.912019,295.486537 364.912019,295.486537 L443.134241,269.033204 L457.356463,273.868759 L393.356463,295.486537 L393.356463,354.935426 C393.356463,403.006537 434.885352,433.584315 457.356463,446.526537 Z" id="Path" fill="#00B871" fill-rule="nonzero"></path>
                <path d="M333.86313,428.144315 L184.245352,428.144315 C180.974241,428.144315 177.859574,426.636759 175.840019,424.048315 C173.806241,421.45987 173.109352,418.089204 173.891574,414.903426 L181.571574,384.041204 C185.738685,367.500759 197.827574,354.473204 213.898685,349.182537 L271.029352,330.138981 C277.614241,327.37987 282.108463,316.144315 282.848019,299.888315 C275.168019,292.720315 262.325352,278.412759 262.325352,263.038537 C262.325352,261.274981 262.069352,260.194092 261.884463,259.66787 C259.537796,258.51587 257.674685,256.524759 256.693352,254.050092 C255.953796,252.215426 249.525352,235.746092 249.525352,224.354092 C249.525352,223.500759 249.624907,222.647426 249.824019,221.808315 C250.776907,217.911426 252.938685,214.000315 256.124463,211.212759 C256.195574,209.946981 256.266685,208.581648 256.337796,207.130981 C256.707574,200.14787 257.205352,190.846537 257.205352,179.269648 C257.205352,151.294537 290.001796,108.158537 333.578685,108.158537 C370.328907,108.158537 389.045352,127.458092 393.425796,141.196759 C402.257796,146.402092 410.66313,155.660759 410.66313,179.269648 L410.66313,211.340759 C413.706685,213.929204 415.91113,217.456315 417.077352,220.969204 C417.44713,222.064315 417.632019,223.202092 417.632019,224.354092 L406.040907,224.666981 L396.853352,227.738981 C396.924463,227.738981 398.232907,228.634981 399.996463,228.634981 C394.108463,228.634981 389.329796,223.856315 389.329796,217.968315 L389.329796,179.28387 C389.329796,162.914092 384.792907,160.624315 381.777796,159.116759 C379.416907,157.90787 373.116463,154.736315 373.116463,147.113204 C372.576019,144.823426 362.805352,129.477648 333.578685,129.477648 C302.332463,129.477648 278.538685,162.658092 278.538685,179.255426 C278.538685,191.301648 278.040907,200.972759 277.642685,208.240315 C277.429352,212.279426 277.258685,215.522092 277.258685,217.93987 C277.258685,222.206537 274.755574,225.890092 271.128907,227.596759 C271.825796,232.218981 273.674685,238.334537 275.296019,242.928315 C279.59113,246.398537 283.658685,252.713204 283.658685,263.024315 C283.658685,268.727426 290.869352,279.024315 300.440907,286.960315 C302.872907,288.994092 304.29513,291.994981 304.29513,295.166537 C304.29513,323.696315 295.136019,343.209204 278.510241,350.106981 L220.640019,369.434981 C211.49513,372.450092 204.654241,379.845648 202.293352,389.232315 L197.898685,406.810981 L333.86313,406.810981 L333.86313,428.144315 Z" id="Shape" fill="#000000" fill-rule="nonzero"></path>
                <path d="M443.134241,464.588759 C441.712019,464.588759 440.318241,464.304315 438.981352,463.749648 C435.525352,462.284759 354.245352,427.15587 354.245352,354.878537 L354.245352,295.44387 C354.245352,290.864315 357.160907,286.810981 361.498685,285.346092 L439.720907,258.935426 C441.939574,258.181648 444.328907,258.181648 446.547574,258.935426 L524.769796,285.346092 C529.107574,286.810981 532.02313,290.878537 532.02313,295.44387 L532.02313,354.878537 C532.02313,427.15587 450.74313,462.298981 447.28713,463.749648 C445.950241,464.304315 444.556463,464.588759 443.134241,464.588759 L443.134241,464.588759 Z M375.578685,303.109648 L375.578685,354.878537 C375.578685,404.88387 427.816907,434.537204 443.120019,442.146092 C458.408907,434.494537 510.689796,404.698981 510.689796,354.878537 L510.689796,303.109648 L443.134241,280.297204 L375.578685,303.109648 Z" id="Shape" fill="#EFEFEF" fill-rule="nonzero"></path>
                <path d="M436.02313,393.477648 C435.824019,393.477648 435.63913,393.477648 435.440019,393.463426 C432.396463,393.292759 429.594685,391.842092 427.688907,389.481204 L399.244463,353.925648 L415.912907,340.585204 L436.91913,366.839426 L478.26313,325.495426 L493.352907,340.585204 L443.57513,390.362981 C441.569796,392.354092 438.83913,393.477648 436.02313,393.477648 Z" id="Path" fill="#000000" fill-rule="nonzero"></path>
                <g id="Group" transform="translate(456.289327, 35.428304)" fill="#A4AFC1" fill-rule="nonzero">
                    <polygon id="Path" transform="translate(15.082667, 17.597170) rotate(-45.000000) translate(-15.082667, -17.597170) " points="7.97262941 3.37709527 22.1927039 3.37709527 22.1927039 31.8172443 7.97262941 31.8172443"></polygon>
                    <polygon id="Path" transform="translate(72.947442, 75.542670) rotate(-45.000000) translate(-72.947442, -75.542670) " points="65.8374045 61.3225957 80.057479 61.3225957 80.057479 89.7627447 65.8374045 89.7627447"></polygon>
                    <polygon id="Path" transform="translate(72.903438, 15.082667) rotate(-45.000000) translate(-72.903438, -15.082667) " points="58.6833637 7.97262941 87.1235127 7.97262941 87.1235127 22.1927039 58.6833637 22.1927039"></polygon>
                </g>
            </g>
        </g>
    </g>
</svg>