<?xml version="1.0" encoding="UTF-8"?>
<svg width="48px" height="48px" viewBox="0 0 48 48" version="1.1" xmlns="http://www.w3.org/2000/svg" xmlns:xlink="http://www.w3.org/1999/xlink">
    <title>success</title>
    <g id="Page-1" stroke="none" stroke-width="1"   fill-rule="evenodd">
        <g id="Artboard" transform="translate(-251.000000, -227.000000)"  fill-rule="nonzero">
            <g id="success" transform="translate(251.000000, 227.000000)">
                <path d="M47.2974416,22.6862369 L42.3357519,19.3742434 L42.2094714,18.7891508 L44.8345498,13.4880674 C45.0625485,13.0143496 45.0505485,12.4560694 44.7808314,11.9971641 C44.5168329,11.541165 44.0425544,11.2474468 43.5208387,11.2142593 L37.5957797,10.8331663 L37.1666885,10.3982609 L36.7797845,4.4788975 C36.7557846,3.95380478 36.4557864,3.47718071 35.9997891,3.21318122 C35.5437917,2.95208798 34.9827013,2.93380677 34.5117978,3.16808756 L29.2021101,5.79317619 L28.6050199,5.63427025 L25.3135704,0.702279878 C25.0246346,0.267843227 24.5426687,0.00815623407 24.0238592,0 L23.9758595,0 C23.4598625,0.00815623407 22.9784591,0.267843227 22.6889608,0.702279878 L19.3946989,5.63998898 L18.8037961,5.79308244 L13.4878272,3.16799381 C13.01983,2.93427552 12.4587395,2.95199423 11.9998359,3.21308747 C11.5438386,3.47708696 11.2501216,3.95417978 11.2169343,4.47936625 L10.8358428,10.4044484 L10.4067515,10.8335413 L4.48506747,11.2136968 C3.95707056,11.2467905 3.48279209,11.5439775 3.21879364,11.9966016 C2.95479519,12.4555069 2.93707654,13.0165996 3.17079392,13.4903174 L5.79587229,18.8034008 L5.6398732,19.3943059 L0.702277135,22.6862369 C0.26109222,22.9771426 0,23.4720479 0,24.0000469 C0,24.5280458 0.263998453,25.0229511 0.705089619,25.3137631 L5.63996695,28.6080379 L5.79305981,29.198943 L3.16798144,34.5091201 C2.93426406,34.9828379 2.9519827,35.5440243 3.21598116,35.9971172 C3.47997961,36.4560225 3.95369558,36.7531157 4.48225499,36.7862094 L10.403939,37.1702087 L10.8330303,37.6022078 L11.2199343,43.5211025 C11.2468404,44.0491015 11.5410261,44.5261943 12.0028359,44.7901938 C12.4617395,45.0541933 13.0171112,45.0724745 13.4908272,44.8381937 L18.8005148,42.2131051 L19.3976051,42.3691047 L22.6855858,47.3040014 C22.9826778,47.7360005 23.4804874,48 24.0055781,48 C24.533575,48 25.0255721,47.7360005 25.3192891,47.2977201 L28.6101761,42.3628235 L29.2101726,42.2068238 L34.5198602,44.8285374 C34.9849513,45.0622557 35.5518542,45.044537 36.0078515,44.7805375 C36.4638488,44.5165381 36.7575659,44.0394452 36.7941282,43.5114463 L37.1752197,37.5983641 L37.6163108,37.1606462 L43.525995,36.7795532 C44.0539919,36.7464595 44.5277078,36.4526476 44.7917063,35.9932735 C45.0557048,35.5343681 45.0738921,34.9795567 44.839706,34.5052764 L42.2155651,29.1960367 L42.3446581,28.6137566 L47.2977229,25.3108568 C47.738814,25.0171386 48,24.5245771 48,23.9971406 C48,23.4691417 47.7386265,22.9771426 47.2974416,22.6862369 Z M35.5495105,19.9022424 L24.9027603,30.9662208 L21.5758736,34.2902143 C20.9667834,34.9051193 19.9649768,34.9051193 19.3558866,34.2902143 L16.0256248,30.9662208 L11.099935,26.0371366 C10.4879385,25.4280441 10.4879385,24.432046 11.099935,23.8228597 L13.3170157,21.5999578 C13.9261059,20.987959 14.9279125,20.987959 15.5370027,21.5999578 L20.4598801,26.5228544 L31.1038178,15.4622511 C31.7129079,14.847346 32.7089021,14.843971 33.3175235,15.4559698 L35.5375105,17.6759655 C36.1528819,18.2851518 36.1528819,19.2868686 35.5495105,19.9022424 Z" id="Shape"></path>
            </g>
        </g>
    </g>
</svg>